<svg width="30" height="30" viewBox="0 0 30 30" fill="none" xmlns="http://www.w3.org/2000/svg">
<g id="02_Mobile Home / About Us / Icon / Our Mission" clip-path="url(#clip0_12714_36237)">
<g id="Vector" filter="url(#filter0_d_12714_36237)">
<path d="M12.7377 23.0432L12.6876 22.1811C12.687 22.1715 12.6861 22.1619 12.6847 22.1523C12.5669 21.3034 12.2165 20.5036 11.6722 19.8415C11.1279 19.1794 10.4111 18.6809 9.60093 18.4011L9.32074 18.3036C8.93245 18.1678 8.57963 17.9466 8.28837 17.6561L6.92619 16.2939L6.46001 14.7164C6.34835 14.3024 6.11371 13.932 5.7871 13.6541C5.4605 13.3762 5.05728 13.204 4.63072 13.1601L4.55419 12.9047C4.55337 12.9019 4.55244 12.8988 4.55156 12.8963C4.33441 12.2326 3.61218 11.8054 2.87619 11.8542L2.85298 11.7773C2.71273 11.3059 2.39606 10.9068 1.96891 10.663C1.54176 10.4192 1.03705 10.3496 0.559858 10.4687C0.472881 10.4902 0.39743 10.5442 0.348924 10.6196C0.300417 10.6949 0.282517 10.786 0.298881 10.8741L1.79144 18.9065C1.79449 18.9229 1.7987 18.939 1.80404 18.9548C2.15453 19.9853 2.82551 20.8767 3.71888 21.4986L6.97857 23.7446C6.98443 23.7489 6.99099 23.753 6.99749 23.7568C7.22785 23.8942 7.39956 24.1115 7.4799 24.3674L7.72775 27.7161C7.73283 27.7852 7.75818 27.8512 7.80062 27.9058C7.84305 27.9605 7.90068 28.0015 7.96628 28.0235L8.03337 28.046C9.49924 28.5423 11.086 28.5533 12.5586 28.0774L12.7221 28.025C12.793 28.0023 12.8549 27.9576 12.8988 27.8975C12.9427 27.8373 12.9664 27.7647 12.9664 27.6902V25.8164C12.9664 25.0546 12.8994 24.2314 12.7554 23.2244C12.7472 23.1645 12.7411 23.1035 12.7377 23.0432ZM5.78185 14.9021C5.78261 14.9052 5.78349 14.9083 5.78443 14.9113L5.94029 15.4386C5.72189 15.3187 5.48523 15.2355 5.2398 15.1925L4.8597 13.9242C5.08242 13.998 5.28331 14.126 5.44427 14.2967C5.60524 14.4674 5.72125 14.6754 5.78185 14.9021ZM3.88206 13.1115L4.50374 15.1857C4.30382 15.2154 4.10874 15.2715 3.92367 15.3527L3.08794 12.562C3.43113 12.5958 3.77408 12.7881 3.88206 13.1115ZM12.2634 27.4332C11.0085 27.8209 9.66569 27.8196 8.41165 27.4293L8.17839 24.2777C8.1767 24.2541 8.17257 24.2307 8.16609 24.208C8.04304 23.77 7.75804 23.3952 7.36886 23.1596L4.11861 20.9203C3.35642 20.3894 2.78206 19.6307 2.47798 18.7531L1.05896 11.1155C1.3127 11.1234 1.55751 11.211 1.75863 11.3659C1.95975 11.5208 2.10695 11.7351 2.17933 11.9784L3.3113 15.7525C3.28572 15.7759 3.26058 15.7999 3.23589 15.8245C3.20232 15.8581 3.17591 15.8982 3.15825 15.9423C3.14059 15.9864 3.13205 16.0336 3.13315 16.0811C3.13424 16.1286 3.14495 16.1754 3.16462 16.2186C3.1843 16.2618 3.21253 16.3006 3.24761 16.3327L4.88044 17.8242C5.35594 18.2587 5.79081 18.7356 6.17964 19.2492C6.20737 19.2863 6.24218 19.3176 6.28207 19.3413C6.32195 19.365 6.36612 19.3805 6.41203 19.387C6.45794 19.3935 6.50469 19.3909 6.54958 19.3793C6.59447 19.3676 6.63661 19.3472 6.67359 19.3192C6.71056 19.2913 6.74163 19.2562 6.76502 19.2162C6.7884 19.1761 6.80362 19.1319 6.80982 19.0859C6.81602 19.04 6.81307 18.9932 6.80113 18.9484C6.78919 18.9036 6.76851 18.8616 6.74027 18.8248C6.32557 18.2772 5.86179 17.7685 5.3547 17.3051L4.02544 16.0912C4.32709 15.9076 4.68163 15.8305 5.03229 15.8722C5.38296 15.914 5.70946 16.0723 5.95951 16.3216L7.79115 18.1532C8.15742 18.5186 8.60116 18.7969 9.08953 18.9677L9.36972 19.0652C10.0554 19.302 10.6624 19.7233 11.1241 20.2829C11.5857 20.8424 11.8841 21.5184 11.9863 22.2366L12.0356 23.0837C12.0401 23.1635 12.0483 23.2443 12.0596 23.3239C12.1985 24.2972 12.2633 25.0891 12.2633 25.8165L12.2634 27.4332Z" fill="white"/>
</g>
<g id="Vector_2" filter="url(#filter1_d_12714_36237)">
<path d="M29.4401 10.4687C28.963 10.3496 28.4583 10.4192 28.0312 10.6629C27.6041 10.9066 27.2874 11.3056 27.147 11.7769L27.1236 11.8544C26.3878 11.8057 25.6654 12.2329 25.4481 12.8966C25.4473 12.8993 25.4463 12.9021 25.4455 12.9049L25.3692 13.1601C24.9427 13.204 24.5395 13.3762 24.2129 13.654C23.8863 13.9319 23.6516 14.3022 23.5399 14.7162L23.0737 16.2937L21.7116 17.6559C21.4203 17.9463 21.0675 18.1676 20.6793 18.3034L20.3989 18.4009C19.5888 18.6807 18.872 19.1792 18.3277 19.8413C17.7834 20.5034 17.433 21.3031 17.3152 22.1521C17.3139 22.1616 17.3129 22.1713 17.3123 22.1809L17.2622 23.0432C17.2588 23.1032 17.2527 23.1642 17.2441 23.2245C17.1004 24.2314 17.0332 25.0549 17.0332 25.8164V27.69C17.0332 27.7634 17.0562 27.8349 17.0988 27.8945C17.1415 27.9542 17.2018 27.999 17.2712 28.0227C18.759 28.5273 20.3698 28.5383 21.8643 28.0541L21.9559 28.0242C22.021 28.003 22.0784 27.9632 22.1212 27.9098C22.164 27.8564 22.1902 27.7917 22.1968 27.7236L22.5186 24.3707C22.5984 24.1133 22.7706 23.8946 23.0021 23.7566C23.0086 23.7528 23.0149 23.7486 23.021 23.7444L26.2819 21.498C27.1748 20.8762 27.8455 19.9852 28.1959 18.955C28.2012 18.9393 28.2055 18.9231 28.2085 18.9068L29.7011 10.8741C29.7174 10.786 29.6995 10.6949 29.651 10.6196C29.6025 10.5442 29.5271 10.4903 29.4401 10.4687ZM26.1178 13.1112C26.2258 12.7876 26.569 12.5953 26.9121 12.5616L26.1057 15.2578L26.0765 15.3526C25.8914 15.2714 25.6963 15.2153 25.4964 15.1857L26.1178 13.1112ZM24.2155 14.9113C24.2165 14.9083 24.2173 14.9054 24.2181 14.9021C24.2787 14.6755 24.3947 14.4675 24.5557 14.2968C24.7167 14.1261 24.9175 13.9981 25.1402 13.9244L24.7601 15.1928C24.5147 15.2358 24.278 15.319 24.0597 15.4389L24.2155 14.9113ZM27.5218 18.7531C27.218 19.6304 26.6439 20.3889 25.8822 20.9197L22.6311 23.1596C22.2419 23.3952 21.9569 23.77 21.8339 24.208C21.8281 24.2282 21.8241 24.249 21.8221 24.27L21.5192 27.4259C20.2861 27.7977 18.9711 27.8004 17.7365 27.4337V25.8164C17.7365 25.089 17.801 24.297 17.9401 23.3238C17.9515 23.2441 17.9596 23.1632 17.9642 23.0836L18.0134 22.2362C18.1157 21.5181 18.414 20.8421 18.8757 20.2825C19.3373 19.723 19.9443 19.3017 20.63 19.0648L20.9103 18.9673C21.3986 18.7966 21.8423 18.5182 22.2086 18.1529L24.0403 16.3214C24.2903 16.072 24.6168 15.9137 24.9675 15.8719C25.3181 15.8302 25.6727 15.9072 25.9743 16.0909L24.6452 17.3049C24.1381 17.7683 23.6743 18.277 23.2596 18.8247C23.2314 18.8614 23.2107 18.9035 23.1988 18.9483C23.1868 18.9931 23.1839 19.0398 23.1901 19.0857C23.1963 19.1317 23.2115 19.176 23.2349 19.216C23.2582 19.2561 23.2893 19.2911 23.3263 19.3191C23.3633 19.3471 23.4054 19.3675 23.4503 19.3791C23.4952 19.3907 23.5419 19.3934 23.5879 19.3868C23.6338 19.3803 23.6779 19.3648 23.7178 19.3411C23.7577 19.3175 23.7925 19.2862 23.8202 19.249C24.2091 18.7355 24.6439 18.2585 25.1194 17.824L26.7526 16.3323C26.7876 16.3003 26.8158 16.2615 26.8355 16.2182C26.8551 16.175 26.8658 16.1282 26.8669 16.0807C26.8679 16.0332 26.8594 15.986 26.8417 15.9419C26.824 15.8978 26.7976 15.8578 26.764 15.8242C26.7393 15.7995 26.7142 15.7754 26.6886 15.7521L27.8206 11.978C27.893 11.7347 28.0402 11.5204 28.2413 11.3655C28.4424 11.2106 28.6872 11.123 28.9409 11.1152L27.5218 18.7531Z" fill="white"/>
</g>
<g id="Vector_3" filter="url(#filter2_d_12714_36237)">
<path d="M19.976 8.35996C21.0096 7.51228 21.636 6.33396 21.7877 4.95226L22.1638 1.9716C22.1702 1.92083 22.1654 1.86926 22.1499 1.82052C22.1343 1.77178 22.1082 1.72702 22.0735 1.68939C22.0389 1.65175 21.9964 1.62214 21.9491 1.60262C21.9018 1.5831 21.8508 1.57415 21.7996 1.57639C18.7108 1.71115 16.288 4.81551 16.3989 8.49631L16.4224 9.2739C16.0598 9.99783 15.7553 10.7494 15.5117 11.5215C15.3153 11.0677 15.061 10.6412 14.7552 10.2527C14.6861 9.54153 14.5661 8.83628 14.396 8.14234C14.0466 6.78226 13.147 5.72764 11.9898 5.32123L8.30157 4.02566C8.24736 4.00662 8.18931 4.00115 8.1325 4.00974C8.07569 4.01833 8.02185 4.04072 7.97569 4.07493C7.92953 4.10915 7.89247 4.15416 7.86773 4.20602C7.843 4.25788 7.83136 4.31502 7.83382 4.37242C7.93167 6.65705 8.74964 8.60418 10.078 9.71447C10.8998 10.4014 11.902 10.755 13.0094 10.755C13.2546 10.7547 13.4995 10.738 13.7424 10.7051L14.195 10.677C14.5358 11.1081 14.804 11.592 14.9891 12.1094C15.2281 12.775 15.3137 13.4149 15.2452 14.0152H11.5735C11.5237 14.0152 11.4745 14.0257 11.4291 14.0462C11.3837 14.0666 11.3432 14.0964 11.3102 14.1337C11.2772 14.171 11.2525 14.2148 11.2377 14.2623C11.2229 14.3099 11.2184 14.36 11.2245 14.4094L11.7124 18.4035C11.7228 18.4887 11.7641 18.5672 11.8284 18.6241C11.8927 18.681 11.9756 18.7124 12.0614 18.7124H17.9384C18.0242 18.7124 18.1071 18.681 18.1714 18.6241C18.2357 18.5672 18.2769 18.4887 18.2874 18.4035L18.7753 14.4094C18.7814 14.36 18.7768 14.3099 18.7621 14.2623C18.7473 14.2148 18.7226 14.171 18.6896 14.1337C18.6566 14.0964 18.616 14.0666 18.5707 14.0462C18.5253 14.0257 18.4761 14.0152 18.4263 14.0152H15.9518C15.9882 13.6192 15.9722 13.2201 15.9044 12.8282C16.1149 11.7394 16.5372 10.6306 17.0202 9.64832C18.1275 9.47283 19.1733 9.01832 19.976 8.35996ZM21.4116 2.31894L21.09 4.86719L21.0893 4.87305C20.8352 7.19922 19.1391 8.41756 17.4431 8.8457C17.6954 8.39699 17.952 7.99023 18.194 7.64353L19.5839 5.65351C19.6368 5.57706 19.6572 5.48277 19.6408 5.39129C19.6243 5.2998 19.5723 5.21856 19.4961 5.16533C19.4198 5.1121 19.3257 5.09123 19.2341 5.10727C19.1425 5.12331 19.0611 5.17495 19.0075 5.25092L17.6176 7.24094C17.4505 7.48023 17.2767 7.74736 17.1019 8.03635C17.1881 5.1035 19.0262 2.6715 21.4113 2.31883L21.4116 2.31894ZM11.3871 7.08396C11.3182 7.02117 11.2271 6.98832 11.134 6.99266C11.0409 6.99699 10.9532 7.03815 10.8904 7.10708C10.8277 7.17601 10.7948 7.26706 10.7991 7.3602C10.8035 7.45334 10.8446 7.54095 10.9136 7.60375L13.5635 10.0178C12.3858 10.1563 11.3649 9.87391 10.5288 9.17512C9.45177 8.27476 8.7521 6.72314 8.57269 4.86625L11.7567 5.98445C12.6921 6.31293 13.4241 7.18498 13.715 8.31713C13.7988 8.64338 13.8723 9.00789 13.9354 9.40533L11.3871 7.08396ZM18.0293 14.7183L17.6273 18.0093H12.3726L11.9707 14.7183H18.0293Z" fill="white"/>
</g>
</g>
<defs>
<filter id="filter0_d_12714_36237" x="-9.70703" y="0.411865" width="32.6733" height="38.0146" filterUnits="userSpaceOnUse" color-interpolation-filters="sRGB">
<feFlood flood-opacity="0" result="BackgroundImageFix"/>
<feColorMatrix in="SourceAlpha" type="matrix" values="0 0 0 0 0 0 0 0 0 0 0 0 0 0 0 0 0 0 127 0" result="hardAlpha"/>
<feOffset/>
<feGaussianBlur stdDeviation="5"/>
<feComposite in2="hardAlpha" operator="out"/>
<feColorMatrix type="matrix" values="0 0 0 0 0 0 0 0 0 0 0 0 0 0 0 0 0 0 0.25 0"/>
<feBlend mode="normal" in2="BackgroundImageFix" result="effect1_dropShadow_12714_36237"/>
<feBlend mode="normal" in="SourceGraphic" in2="effect1_dropShadow_12714_36237" result="shape"/>
</filter>
<filter id="filter1_d_12714_36237" x="7.0332" y="0.411865" width="32.6738" height="37.9976" filterUnits="userSpaceOnUse" color-interpolation-filters="sRGB">
<feFlood flood-opacity="0" result="BackgroundImageFix"/>
<feColorMatrix in="SourceAlpha" type="matrix" values="0 0 0 0 0 0 0 0 0 0 0 0 0 0 0 0 0 0 127 0" result="hardAlpha"/>
<feOffset/>
<feGaussianBlur stdDeviation="5"/>
<feComposite in2="hardAlpha" operator="out"/>
<feColorMatrix type="matrix" values="0 0 0 0 0 0 0 0 0 0 0 0 0 0 0 0 0 0 0.25 0"/>
<feBlend mode="normal" in2="BackgroundImageFix" result="effect1_dropShadow_12714_36237"/>
<feBlend mode="normal" in="SourceGraphic" in2="effect1_dropShadow_12714_36237" result="shape"/>
</filter>
<filter id="filter2_d_12714_36237" x="-2.1665" y="-8.42395" width="34.333" height="37.1364" filterUnits="userSpaceOnUse" color-interpolation-filters="sRGB">
<feFlood flood-opacity="0" result="BackgroundImageFix"/>
<feColorMatrix in="SourceAlpha" type="matrix" values="0 0 0 0 0 0 0 0 0 0 0 0 0 0 0 0 0 0 127 0" result="hardAlpha"/>
<feOffset/>
<feGaussianBlur stdDeviation="5"/>
<feComposite in2="hardAlpha" operator="out"/>
<feColorMatrix type="matrix" values="0 0 0 0 0 0 0 0 0 0 0 0 0 0 0 0 0 0 0.25 0"/>
<feBlend mode="normal" in2="BackgroundImageFix" result="effect1_dropShadow_12714_36237"/>
<feBlend mode="normal" in="SourceGraphic" in2="effect1_dropShadow_12714_36237" result="shape"/>
</filter>
<clipPath id="clip0_12714_36237">
<rect width="30" height="30" fill="white"/>
</clipPath>
</defs>
</svg>
