<svg width="30" height="30" viewBox="0 0 30 30" fill="none" xmlns="http://www.w3.org/2000/svg">
<g id="02_Mobile Home / About Us / Icon / Our Vision" clip-path="url(#clip0_12714_36264)">
<g id="Group" filter="url(#filter0_d_12714_36264)">
<g id="Group_2">
<path id="Vector" d="M29.1473 13.6465L26.5007 16.2931L22.2077 12L24.8542 9.35349L24.1472 8.64648L21.1472 11.6465L18.7937 14H11.2076L8.85406 11.6465L5.85403 8.64648L5.14702 9.35349L7.79355 12L3.50051 16.2931L0.85398 13.6465L0.146973 14.3535L3.147 17.3536L5.64703 19.8536L8.29706 22.4896L7.89705 22.8896C7.29036 23.4896 7.28498 24.4679 7.88499 25.0746C7.88899 25.0787 7.89299 25.0827 7.89705 25.0867C8.17562 25.3627 8.54812 25.5233 8.94006 25.5367C8.9545 25.9279 9.118 26.2987 9.39707 26.5732C9.67576 26.849 10.0482 27.0097 10.4401 27.0232C10.4553 27.415 10.6201 27.7861 10.9006 28.0602C11.1793 28.336 11.5517 28.4967 11.9436 28.5102C11.958 28.9014 12.1215 29.2722 12.4006 29.5467C13.0114 30.1501 13.9939 30.1501 14.6046 29.5467L15.0006 29.1502L15.3966 29.5437C16.0068 30.1528 16.9951 30.1519 17.6042 29.5417C17.8808 29.2646 18.0432 28.8938 18.0592 28.5027C18.4517 28.4885 18.8243 28.3268 19.1027 28.0497C19.3816 27.7735 19.5449 27.4014 19.5592 27.0092C19.9517 26.9948 20.3244 26.8329 20.6027 26.5557C20.8816 26.2795 21.0449 25.9074 21.0592 25.5152C21.9175 25.4855 22.5893 24.7657 22.5596 23.9074C22.546 23.5126 22.3826 23.1378 22.1027 22.8591L21.7237 22.4816L24.3532 19.8521L26.8532 17.3521L29.8533 14.352L29.1473 13.6465ZM4.20751 17.0001L8.50056 12.707L10.2936 14.5L6.00053 18.7931L4.20751 17.0001ZM9.40057 24.3756C9.17957 24.5964 8.82156 24.5964 8.60056 24.3756C8.386 24.1641 8.3835 23.8188 8.595 23.6042C8.59681 23.6023 8.59869 23.6005 8.60056 23.5986L9.00706 23.1956L9.80057 23.9796L9.40057 24.3756ZM10.8941 25.8642C10.6734 26.0798 10.3208 26.0794 10.1006 25.8632C9.88589 25.651 9.88376 25.305 10.096 25.0903C10.0975 25.0887 10.099 25.0872 10.1006 25.0857L10.5051 24.6857L11.2941 25.4697L10.8941 25.8642ZM12.4006 27.3502C12.1794 27.5704 11.8218 27.5704 11.6006 27.3502C11.386 27.1387 11.3835 26.7933 11.595 26.5787C11.5968 26.5769 11.5987 26.575 11.6006 26.5732L12.0036 26.1732L12.7921 26.9572L12.4006 27.3502ZM13.9006 28.8372C13.6799 29.0548 13.3254 29.0548 13.1046 28.8372C12.89 28.6257 12.8875 28.2803 13.099 28.0658C13.1009 28.0639 13.1027 28.062 13.1046 28.0602L13.5046 27.6627L14.2931 28.4467L13.9006 28.8372ZM21.4014 24.3519C21.4005 24.3528 21.3996 24.3537 21.3987 24.3546H21.4007C21.1809 24.5728 20.8264 24.5728 20.6067 24.3546L19.8567 23.6076C19.661 23.4127 19.3444 23.4133 19.1494 23.6089C18.9545 23.8045 18.955 24.1212 19.1507 24.3161L19.9007 25.0632C20.1176 25.2785 20.1188 25.629 19.9034 25.8459C19.9025 25.8469 19.9016 25.8477 19.9007 25.8487C19.6809 26.0668 19.3264 26.0668 19.1067 25.8487L18.3567 25.1017C18.161 24.9067 17.8443 24.9073 17.6494 25.1029C17.4545 25.2985 17.455 25.6152 17.6507 25.8102L18.4007 26.5572C18.6176 26.7725 18.6188 27.1231 18.4034 27.3399C18.4025 27.3409 18.4016 27.3417 18.4007 27.3427C18.1809 27.5608 17.8264 27.5608 17.6067 27.3427L16.8566 26.5957C16.661 26.4007 16.3443 26.4013 16.1494 26.5969C15.9544 26.7926 15.955 27.1092 16.1506 27.3042L16.9006 28.0512C17.1176 28.2666 17.1188 28.6171 16.9034 28.8339C16.9025 28.8349 16.9016 28.8358 16.9006 28.8367C16.6806 29.0546 16.3261 29.0546 16.1061 28.8367L6.70854 19.5001L11.2086 15.0001H12.8141L9.14407 18.7561C8.95263 18.952 8.95444 19.2654 9.14807 19.4591C9.76776 20.085 10.5998 20.4554 11.4796 20.4971C12.3648 20.544 13.2284 20.2126 13.8551 19.5856C13.8772 19.5637 13.8971 19.5398 13.9146 19.5141L14.0956 19.2486C15.1753 20.0999 16.5828 20.4156 17.9227 20.1071L21.3987 23.5691C21.6156 23.7845 21.6168 24.135 21.4014 24.3519ZM21.0192 21.7776L18.9217 19.6886L19.3007 19.4001C19.3185 19.3862 19.3352 19.371 19.3507 19.3546L19.8507 18.8546L19.1437 18.1476L18.6682 18.6231L18.2357 18.9491C16.9006 19.5202 15.3514 19.2011 14.3506 18.1491C14.1554 17.9538 13.8388 17.9538 13.6435 18.149C13.6215 18.171 13.6016 18.1949 13.5841 18.2206L13.1116 18.9121C12.6843 19.3166 12.1103 19.529 11.5226 19.5001C11.063 19.4764 10.6185 19.3273 10.2376 19.0691L14.2111 15.0001H18.7937L23.2937 19.5001L21.0192 21.7776ZM24.0007 18.7931L19.7077 14.5L21.5007 12.707L25.7937 17.0001L24.0007 18.7931Z" fill="white"/>
</g>
</g>
<g id="Group_3" filter="url(#filter1_d_12714_36264)">
<g id="Group_4">
<path id="Vector_2" d="M6.5005 16.5001H5.50049V17.5001H6.5005V16.5001Z" fill="white"/>
</g>
</g>
<g id="Group_5" filter="url(#filter2_d_12714_36264)">
<g id="Group_6">
<path id="Vector_3" d="M24.5005 16.5001H23.5005V17.5001H24.5005V16.5001Z" fill="white"/>
</g>
</g>
<g id="Group_7" filter="url(#filter3_d_12714_36264)">
<g id="Group_8">
<path id="Vector_4" d="M16.0005 9.00009C18.2087 8.99759 19.9981 7.2082 20.0006 5.00005C20.0006 4.72392 19.7767 4.50005 19.5006 4.50005H18.5006C17.3508 4.50067 16.2573 4.99749 15.5005 5.86306V4.00004H16.0005C17.9326 3.99785 19.4984 2.43209 19.5006 0.500005C19.5006 0.223877 19.2767 0 19.0006 0H18.0006C16.7701 0.00193752 15.631 0.649882 15.0005 1.70652C14.37 0.649882 13.231 0.00193752 12.0005 0H11.0005C10.7244 0 10.5005 0.223877 10.5005 0.500005C10.5027 2.43209 12.0684 3.99785 14.0005 4.00004H14.5005V5.86306C13.7438 4.99749 12.6503 4.50067 11.5005 4.50005H10.5005C10.2244 4.50005 10.0005 4.72392 10.0005 5.00005C10.003 7.2082 11.7924 8.99759 14.0005 9.00009H14.5005V9.7931L11.2935 13.0001H12.7075L15.0005 10.7071L17.2936 13.0001H18.7076L15.5005 9.7931V9.00009H16.0005ZM18.5006 5.50006H18.9591C18.7131 6.94257 17.4639 7.99827 16.0005 8.00008H15.542C15.7879 6.55757 17.0372 5.50187 18.5006 5.50006ZM18.0006 1.00001H18.4506C18.2115 2.16334 17.1882 2.99872 16.0005 3.00003H15.5505C15.7895 1.83671 16.8129 1.00132 18.0006 1.00001ZM14.0005 3.00003C12.8129 2.99872 11.7896 2.16334 11.5505 1.00001H12.0005C13.1881 1.00132 14.2115 1.83671 14.4505 3.00003H14.0005ZM14.0005 8.00008C12.5372 7.99827 11.2879 6.94257 11.042 5.50006H11.5005C12.9638 5.50187 14.2131 6.55757 14.459 8.00008H14.0005Z" fill="white"/>
</g>
</g>
</g>
<defs>
<filter id="filter0_d_12714_36264" x="-9.85303" y="2.64648" width="49.7063" height="41.3534" filterUnits="userSpaceOnUse" color-interpolation-filters="sRGB">
<feFlood flood-opacity="0" result="BackgroundImageFix"/>
<feColorMatrix in="SourceAlpha" type="matrix" values="0 0 0 0 0 0 0 0 0 0 0 0 0 0 0 0 0 0 127 0" result="hardAlpha"/>
<feOffset dy="4"/>
<feGaussianBlur stdDeviation="5"/>
<feComposite in2="hardAlpha" operator="out"/>
<feColorMatrix type="matrix" values="0 0 0 0 0 0 0 0 0 0 0 0 0 0 0 0 0 0 0.2 0"/>
<feBlend mode="normal" in2="BackgroundImageFix" result="effect1_dropShadow_12714_36264"/>
<feBlend mode="normal" in="SourceGraphic" in2="effect1_dropShadow_12714_36264" result="shape"/>
</filter>
<filter id="filter1_d_12714_36264" x="-4.49951" y="10.5001" width="21" height="21" filterUnits="userSpaceOnUse" color-interpolation-filters="sRGB">
<feFlood flood-opacity="0" result="BackgroundImageFix"/>
<feColorMatrix in="SourceAlpha" type="matrix" values="0 0 0 0 0 0 0 0 0 0 0 0 0 0 0 0 0 0 127 0" result="hardAlpha"/>
<feOffset dy="4"/>
<feGaussianBlur stdDeviation="5"/>
<feComposite in2="hardAlpha" operator="out"/>
<feColorMatrix type="matrix" values="0 0 0 0 0 0 0 0 0 0 0 0 0 0 0 0 0 0 0.2 0"/>
<feBlend mode="normal" in2="BackgroundImageFix" result="effect1_dropShadow_12714_36264"/>
<feBlend mode="normal" in="SourceGraphic" in2="effect1_dropShadow_12714_36264" result="shape"/>
</filter>
<filter id="filter2_d_12714_36264" x="13.5005" y="10.5001" width="21" height="21" filterUnits="userSpaceOnUse" color-interpolation-filters="sRGB">
<feFlood flood-opacity="0" result="BackgroundImageFix"/>
<feColorMatrix in="SourceAlpha" type="matrix" values="0 0 0 0 0 0 0 0 0 0 0 0 0 0 0 0 0 0 127 0" result="hardAlpha"/>
<feOffset dy="4"/>
<feGaussianBlur stdDeviation="5"/>
<feComposite in2="hardAlpha" operator="out"/>
<feColorMatrix type="matrix" values="0 0 0 0 0 0 0 0 0 0 0 0 0 0 0 0 0 0 0.2 0"/>
<feBlend mode="normal" in2="BackgroundImageFix" result="effect1_dropShadow_12714_36264"/>
<feBlend mode="normal" in="SourceGraphic" in2="effect1_dropShadow_12714_36264" result="shape"/>
</filter>
<filter id="filter3_d_12714_36264" x="0.000488281" y="-6" width="30" height="33.0001" filterUnits="userSpaceOnUse" color-interpolation-filters="sRGB">
<feFlood flood-opacity="0" result="BackgroundImageFix"/>
<feColorMatrix in="SourceAlpha" type="matrix" values="0 0 0 0 0 0 0 0 0 0 0 0 0 0 0 0 0 0 127 0" result="hardAlpha"/>
<feOffset dy="4"/>
<feGaussianBlur stdDeviation="5"/>
<feComposite in2="hardAlpha" operator="out"/>
<feColorMatrix type="matrix" values="0 0 0 0 0 0 0 0 0 0 0 0 0 0 0 0 0 0 0.2 0"/>
<feBlend mode="normal" in2="BackgroundImageFix" result="effect1_dropShadow_12714_36264"/>
<feBlend mode="normal" in="SourceGraphic" in2="effect1_dropShadow_12714_36264" result="shape"/>
</filter>
<clipPath id="clip0_12714_36264">
<rect width="30" height="30" fill="white"/>
</clipPath>
</defs>
</svg>
