<svg width="90" height="40" viewBox="0 0 90 40" fill="none" xmlns="http://www.w3.org/2000/svg">
<path d="M78.809 14.7435C78.8 15.1352 78.4265 15.4193 78.0538 15.3535C78.566 15.4443 79.7578 15.5714 80.4283 15.3535C80.0398 15.4103 79.685 15.1232 79.676 14.7405C79.676 14.7613 79.4135 12.7308 80.462 10.8528C81.3598 9.2468 81.8593 9.41429 82.9108 9.02549C84.2578 8.52607 85.6423 8.01174 86.5925 6.89026C88.1435 5.05706 87.7333 2.54501 87.6005 1.86616C85.9355 4.18383 84.2488 3.52591 82.55 4.58157C80.8228 5.65517 80.0518 7.34781 80.2183 9.1601C81.9298 6.25926 84.0913 7.53625 86.324 4.6354C85.781 5.50864 85.0385 6.26824 84.113 6.80952C82.784 7.59901 82.1428 7.36876 80.129 10.2038C79.7593 10.7242 79.46 11.2923 79.244 11.8875C78.9943 11.1997 78.6335 10.5387 78.1768 9.95858C77.261 8.8012 76.8575 8.14629 76.0558 7.58709C74.9578 6.8155 73.0888 6.51944 71.5812 4.08514C74.0975 7.35981 76.4563 5.86451 78.3748 9.1212C78.5653 7.0577 77.6653 5.20061 75.7813 4.02832C73.8905 2.85304 72.016 3.58572 70.1627 1.00488C70.0148 1.76149 69.5584 4.55765 71.2852 6.5972C72.3393 7.84301 73.871 8.4116 75.365 8.96607L75.38 8.97167C76.0985 9.23785 77.9458 9.31858 78.6673 12.5095C78.8645 13.3947 78.8308 13.9061 78.809 14.7435Z" fill="#00730C"/>
<path d="M1.98006 30.0507C0.700056 30.0507 0.0600586 29.4107 0.0600586 28.1307V11.1998C0.0600586 9.93923 0.710061 9.3089 2.01006 9.3089H9.24006C11.56 9.3089 13.3501 9.8713 14.6101 10.9962C15.8701 12.121 16.5001 13.692 16.5001 15.7089C16.5001 17.7258 15.8701 19.3065 14.6101 20.4507C13.3501 21.5756 11.56 22.138 9.24006 22.138H3.90006V28.1307C3.90006 29.4107 3.26006 30.0507 1.98006 30.0507ZM3.90006 19.1998H8.64006C11.4001 19.1998 12.7801 18.0362 12.7801 15.7089C12.7801 13.401 11.4001 12.2471 8.64006 12.2471H3.90006V19.1998ZM24.2804 30.1089C20.9404 30.1089 19.2704 28.2956 19.2704 24.6689V10.9089C19.2704 9.68708 19.8904 9.07617 21.1304 9.07617C22.3904 9.07617 23.0204 9.68708 23.0204 10.9089V24.4944C23.0204 26.2398 23.7704 27.1125 25.2704 27.1125C25.4304 27.1125 25.5804 27.1125 25.7204 27.1125C25.8604 27.0931 26.0004 27.0738 26.1403 27.0544C26.4204 27.0156 26.6104 27.0931 26.7104 27.2871C26.8104 27.4616 26.8604 27.8301 26.8604 28.3925C26.8604 28.8774 26.7604 29.2556 26.5604 29.5271C26.3604 29.7986 26.0304 29.9634 25.5704 30.0216C25.1504 30.0798 24.7204 30.1089 24.2804 30.1089ZM33.6805 30.1089C32.6205 30.1089 31.6705 29.9149 30.8305 29.5271C30.0105 29.1198 29.3605 28.5768 28.8805 27.898C28.4205 27.2192 28.1905 26.4531 28.1905 25.5998C28.1905 24.5525 28.4704 23.7283 29.0305 23.1271C29.5905 22.5065 30.5005 22.0604 31.7605 21.7889C33.0205 21.5174 34.7104 21.3816 36.8305 21.3816H37.8805V20.7707C37.8805 19.801 37.6605 19.1029 37.2205 18.6762C36.7804 18.2495 36.0405 18.0362 35.0005 18.0362C34.4205 18.0362 33.7905 18.104 33.1105 18.2398C32.4505 18.3756 31.7505 18.6083 31.0105 18.938C30.5305 19.1513 30.1305 19.1804 29.8105 19.0253C29.4904 18.8507 29.2705 18.5889 29.1505 18.2398C29.0505 17.8713 29.0704 17.5029 29.2105 17.1344C29.3704 16.7658 29.6805 16.4944 30.1405 16.3198C31.0605 15.9513 31.9405 15.6895 32.7805 15.5344C33.6405 15.3792 34.4205 15.3016 35.1205 15.3016C37.2604 15.3016 38.8504 15.7865 39.8905 16.7562C40.9305 17.7065 41.4505 19.1901 41.4505 21.2071V28.1889C41.4505 29.4301 40.8705 30.0507 39.7105 30.0507C38.5305 30.0507 37.9405 29.4301 37.9405 28.1889V27.5489C37.6005 28.344 37.0605 28.9744 36.3205 29.4398C35.5804 29.8858 34.7005 30.1089 33.6805 30.1089ZM34.4605 27.6071C35.4405 27.6071 36.2505 27.2774 36.8905 26.618C37.5505 25.9586 37.8805 25.1247 37.8805 24.1162V23.4762H36.8605C34.9804 23.4762 33.6705 23.6216 32.9305 23.9125C32.2105 24.184 31.8505 24.6883 31.8505 25.4253C31.8505 26.0653 32.0805 26.5889 32.5405 26.9962C33.0004 27.4034 33.6405 27.6071 34.4605 27.6071ZM47.1167 30.0507C45.8767 30.0507 45.2567 29.4301 45.2567 28.1889V17.1925C45.2567 15.9707 45.8667 15.3598 47.0867 15.3598C48.3067 15.3598 48.9167 15.9707 48.9167 17.1925V17.8034C49.4167 16.9889 50.0867 16.3683 50.9267 15.9416C51.7867 15.5149 52.7467 15.3016 53.8067 15.3016C57.2667 15.3016 58.9967 17.2507 58.9967 21.1489V28.1889C58.9967 29.4301 58.3767 30.0507 57.1367 30.0507C55.8767 30.0507 55.2467 29.4301 55.2467 28.1889V21.3234C55.2467 20.218 55.0267 19.4131 54.5867 18.9089C54.1667 18.4047 53.5067 18.1525 52.6067 18.1525C51.5067 18.1525 50.6267 18.492 49.9667 19.1707C49.3267 19.8301 49.0067 20.7125 49.0067 21.818V28.1889C49.0067 29.4301 48.3767 30.0507 47.1167 30.0507ZM69.5255 30.1089C65.6455 30.1089 63.7055 28.2471 63.7055 24.5234V18.3271H62.1455C61.1455 18.3271 60.6455 17.8713 60.6455 16.9598C60.6455 16.0483 61.1455 15.5925 62.1455 15.5925H63.7055V12.9453C63.7055 11.7234 64.3355 11.1125 65.5955 11.1125C66.8356 11.1125 67.4555 11.7234 67.4555 12.9453V15.5925H70.6355C71.6356 15.5925 72.1355 16.0483 72.1355 16.9598C72.1355 17.8713 71.6356 18.3271 70.6355 18.3271H67.4555V24.3198C67.4555 25.2507 67.6655 25.9489 68.0855 26.4144C68.5055 26.8798 69.1855 27.1125 70.1255 27.1125C70.4656 27.1125 70.7656 27.0834 71.0255 27.0253C71.2855 26.9671 71.5155 26.9283 71.7155 26.9089C71.9555 26.8895 72.1555 26.9671 72.3155 27.1416C72.4756 27.2968 72.5555 27.6265 72.5555 28.1307C72.5555 28.5186 72.4855 28.8677 72.3455 29.178C72.2255 29.4689 71.9956 29.6725 71.6555 29.7889C71.3956 29.8665 71.0555 29.9344 70.6355 29.9925C70.2155 30.0701 69.8455 30.1089 69.5255 30.1089Z" fill="#0B0B0B"/>
<path d="M79.6888 30.109C78.8293 30.109 77.9188 30.0218 76.9588 29.8472C75.9988 29.6727 75.1393 29.3721 74.3788 28.9454C73.9588 28.7127 73.6993 28.4314 73.5988 28.1018C73.4991 27.7527 73.5088 27.4327 73.6288 27.1418C73.7691 26.8314 73.9888 26.6084 74.2888 26.4727C74.6091 26.3369 74.9788 26.366 75.3988 26.5599C76.1991 26.9284 76.9491 27.1903 77.6488 27.3454C78.3493 27.4812 79.0393 27.549 79.7188 27.549C80.6788 27.549 81.3891 27.3939 81.8488 27.0836C82.3288 26.7539 82.5688 26.3272 82.5688 25.8036C82.5688 24.989 81.9493 24.4654 80.7088 24.2327L77.7088 23.6799C75.1693 23.2145 73.8988 21.9345 73.8988 19.8399C73.8988 18.909 74.1591 18.1042 74.6788 17.4254C75.2188 16.7466 75.9591 16.223 76.8988 15.8545C77.8393 15.486 78.9193 15.3018 80.1388 15.3018C81.8991 15.3018 83.4688 15.6799 84.8488 16.4363C85.2291 16.6303 85.4488 16.9018 85.5088 17.2508C85.5891 17.5805 85.5493 17.9005 85.3888 18.2108C85.2493 18.5018 85.0191 18.7151 84.6988 18.8508C84.3793 18.9672 84.0088 18.9284 83.5888 18.7345C82.9693 18.4242 82.3693 18.2012 81.7888 18.0654C81.2293 17.9296 80.6893 17.8618 80.1688 17.8618C79.1893 17.8618 78.4588 18.0266 77.9788 18.3563C77.5191 18.686 77.2888 19.1223 77.2888 19.6654C77.2888 20.5187 77.8588 21.0423 78.9988 21.2363L81.9988 21.789C83.2993 22.0218 84.2788 22.4484 84.9388 23.069C85.6191 23.6896 85.9588 24.5236 85.9588 25.5708C85.9588 26.9866 85.3888 28.1018 84.2488 28.9163C83.1088 29.7114 81.5893 30.109 79.6888 30.109Z" fill="#00730C"/>
</svg>
