<svg width="25" height="25" viewBox="0 0 25 25" fill="none" xmlns="http://www.w3.org/2000/svg">
<g id="star 3" clip-path="url(#clip0_13093_16289)">
<path id="Vector" d="M22.1051 7.71171L15.5748 7.10604L12.9807 1.08245C12.7991 0.660669 12.2011 0.660669 12.0195 1.08245L9.42547 7.10599L2.89513 7.71171C2.43785 7.75409 2.25309 8.32284 2.59806 8.62592L7.52522 12.9543L6.08327 19.3523C5.98229 19.8003 6.46613 20.1517 6.86096 19.9173L12.5001 16.5689L18.1393 19.9173C18.5342 20.1518 19.0179 19.8003 18.917 19.3523L17.475 12.9543L22.4022 8.62592C22.7472 8.32284 22.5624 7.75409 22.1051 7.71171Z" fill="#00730C"/>
<path id="Vector_2" d="M13.924 3.27288L12.9807 1.08245C12.7991 0.660669 12.2011 0.660669 12.0195 1.08245L9.42542 7.10599L2.89513 7.71171C2.43785 7.75409 2.25309 8.32284 2.59806 8.62592L7.52522 12.9543L6.08327 19.3523C5.98229 19.8003 6.46613 20.1517 6.86096 19.9173L7.6115 19.4716C8.84192 11.5068 12.301 5.65999 13.924 3.27288Z" fill="#00730C"/>
</g>
<defs>
<clipPath id="clip0_13093_16289">
<rect width="25" height="25" fill="white"/>
</clipPath>
</defs>
</svg>
